<svg width="211" height="217" viewBox="0 0 211 217" fill="none" xmlns="http://www.w3.org/2000/svg">
<rect width="211" height="217" fill="#1E1E1E"/>
<g clip-path="url(#clip0_0_1)">
<rect width="211" height="217" fill="white"/>
<path fill-rule="evenodd" clip-rule="evenodd" d="M46.3021 81.9858C43.0591 86.6331 41 89.5838 41 85C41 84.1504 40.9636 83.214 40.903 82.211L46.6425 81.4983L46.3021 81.9858ZM74.9858 77.9785L46.6425 81.4983C50.6127 75.8156 56.229 68 62 68C66.9875 68 71.5376 73.3011 74.9858 77.9785ZM80.0068 77.355C74.5688 66.6815 55.6626 52 46.5 52C38.1844 52 39.4313 65.5829 40.4313 76.4765C40.6187 78.5182 40.7975 80.4654 40.903 82.211L0 87.2905L119.996 188.031L211.708 61L170.276 66.1451C170.432 58.5182 169.26 52 163.5 52C156.186 52 142.664 61.3546 134.739 70.5582L80.0068 77.355ZM143.26 69.5C139.289 71.935 135.8 76.8414 133.213 80.4801C130.275 84.6107 128.5 87.1076 128.5 82.5C128.5 79.2215 130.995 74.9067 134.739 70.5582L143.26 69.5ZM150.772 68.5672L143.26 69.5C144.777 68.5696 146.365 68 148 68C148.93 68 149.856 68.2029 150.772 68.5672ZM150.772 68.5672C155.703 70.5288 160.336 77.1688 163.698 81.9858C166.941 86.6331 169 89.5838 169 85C169 82.6719 169.274 79.6913 169.569 76.4765C169.876 73.1293 170.207 69.5281 170.276 66.1451L150.772 68.5672ZM80.0068 77.355L74.9858 77.9785C75.6257 78.8465 76.2276 79.6929 76.7873 80.4801C79.7246 84.6107 81.5 87.1076 81.5 82.5C81.5 80.9755 80.9605 79.2269 80.0068 77.355ZM86 112.5C86 115.538 83.5376 118 80.5 118C77.4624 118 75 115.538 75 112.5C75 109.462 77.4624 107 80.5 107C83.5376 107 86 109.462 86 112.5ZM122 118C125.314 118 128 115.538 128 112.5C128 109.462 125.314 107 122 107C118.686 107 116 109.462 116 112.5C116 115.538 118.686 118 122 118ZM107 130.5C107 133.538 104.538 136 101.5 136C98.4624 136 96 133.538 96 130.5C96 127.462 98.4624 125 101.5 125C104.538 125 107 127.462 107 130.5ZM124.778 82.797C126.825 83.4806 128 83.8732 128 83.5C128 82.3954 117.703 75.5 105 75.5C92.2975 75.5 82 82.3954 82 83.5C82 83.8732 83.1753 83.4806 85.2217 82.797C89.2324 81.4573 96.589 79 105 79C113.411 79 120.768 81.4573 124.778 82.797ZM135.487 129.387C130.299 138.315 121.77 144.378 116.877 147.857C114.18 149.775 112.587 150.907 113.266 151.301C115.176 152.411 128.952 145.348 137 131.5C145.048 117.652 144.319 102.265 142.409 101.155C141.758 100.776 141.681 102.325 141.545 105.08C141.281 110.41 140.793 120.257 135.487 129.387ZM87.6715 147.857C82.7782 144.378 74.2499 138.315 69.0616 129.387C63.7555 120.257 63.2676 110.41 63.0035 105.08C62.867 102.325 62.7903 100.776 62.1396 101.155C60.2296 102.265 59.5009 117.652 67.5485 131.5C75.596 145.348 89.3724 152.411 91.2824 151.301C91.961 150.907 90.3683 149.775 87.6715 147.857Z" fill="#C17606"/>
</g>
<defs>
<clipPath id="clip0_0_1">
<rect width="211" height="217" fill="white"/>
</clipPath>
</defs>
</svg>
