<svg viewBox="0 0 211 140" fill="none" xmlns="http://www.w3.org/2000/svg">
  <path fill-rule="evenodd" clip-rule="evenodd" d="M41.2891 33.0389V33c0-2.3281-.2737-5.3087-.5688-8.5235C39.7204 13.5829 38.4735 0 46.7891 0c9.966 0 31.4595 17.3693 34.611 28.0578l-4.2488.5276-.0749-.1053C73.5003 23.451 68.202 16 62.2891 16c-5.938 0-11.7122 8.2743-15.6979 13.9858-.6741.9661-1.2971 1.8588-1.8611 2.6258l-3.441.4273Zm129.1639-16.04L210.708 12l-91.712 127.031L-1 38.2905l42.2891-5.2516c.0092 3.5842 1.2997 2.4849 3.441-.4273l32.4212-4.0262c2.8925 4.0674 4.6378 6.4829 4.6378 1.9146 0-.7623-.1349-1.5805-.389-2.4422l7.5483-.9374c-4.1168 1.852-6.6593 3.8307-6.6593 4.3796 0 .3732 1.1753-.0194 3.2216-.703C89.5214 29.4573 96.878 27 105.289 27c8.411 0 15.768 2.4573 19.778 3.797 2.047.6836 3.222 1.0762 3.222.703 0-.8874-6.647-5.5128-15.848-7.297l20.097-2.4957c-2.319 3.2348-3.749 6.3107-3.749 8.7927 0 4.6075 1.775 2.1107 4.713-2.0199 1.674-2.3544 3.726-5.2397 6.041-7.6427l15.294-1.8992c3.483 2.9268 6.664 7.4856 9.15 11.0476 3.243 4.6473 5.302 7.598 5.302 3.0142 0-2.3281.274-5.3085.569-8.5231v-.0004c.222-2.4193.456-4.9712.595-7.4776Zm-15.616 1.9393 15.616-1.9393C170.94 8.2197 170.258 0 163.789 0c-8.153 0-24.022 11.6255-31.251 21.7073l7.005-.8699c2.63-2.7299 5.601-4.8374 8.746-4.8374 2.235 0 4.446 1.1719 6.548 2.9382Zm-42.396 5.2648c-2.251-.4365-4.655-.703-7.152-.703-6.3906 0-12.1724 1.7453-16.3406 3.6204l23.4926-2.9174ZM80.7891 66c3.0375 0 5.5-2.4624 5.5-5.5s-2.4625-5.5-5.5-5.5c-3.0376 0-5.5 2.4624-5.5 5.5s2.4624 5.5 5.5 5.5Zm47.4999-5.5c0 3.0376-2.686 5.5-6 5.5s-6-2.4624-6-5.5 2.686-5.5 6-5.5 6 2.4624 6 5.5Zm-26.5 23.5c3.038 0 5.5-2.4624 5.5-5.5s-2.462-5.5-5.5-5.5c-3.0375 0-5.4999 2.4624-5.4999 5.5s2.4624 5.5 5.4999 5.5Zm15.377 11.8573c4.893-3.479 13.422-9.5423 18.61-18.47 5.306-9.1304 5.794-18.9769 6.058-24.3078.136-2.7542.213-4.303.864-3.9249 1.91 1.11 2.639 16.4978-5.409 30.3454-8.048 13.8477-21.824 20.911-23.734 19.8014-.679-.3944.914-1.5268 3.611-3.4441Zm-47.8153-18.47c5.1883 8.9277 13.7165 14.991 18.6099 18.47 2.6967 1.9173 4.2895 3.0497 3.6109 3.4441-1.9101 1.1096-15.6864-5.9537-23.734-19.8014-8.0476-13.8476-7.3188-29.2354-5.4088-30.3454.6506-.3781.7274 1.1707.8638 3.9249.2642 5.3309.752 15.1774 6.0582 24.3078Z" fill="#C9C9C9"/>
</svg>
