<svg width="211" height="217" viewBox="0 0 211 217" fill="none" xmlns="http://www.w3.org/2000/svg">
<rect width="211" height="217" fill="#1E1E1E"/>
<g clip-path="url(#clip0_0_1)">
<rect width="211" height="217" fill="white"/>
<path fill-rule="evenodd" clip-rule="evenodd" d="M41.2891 79.0389C41.2891 79.026 41.2891 79.013 41.2891 79C41.2891 76.6719 41.0154 73.6913 40.7203 70.4765C39.7204 59.5829 38.4735 46 46.7891 46C56.7551 46 78.2486 63.3693 81.4001 74.0578L77.1513 74.5854C77.1264 74.5504 77.1014 74.5153 77.0764 74.4801C73.5003 69.451 68.202 62 62.2891 62C56.351 62 50.5769 70.2743 46.5912 75.9858C45.9171 76.9519 45.2941 77.8446 44.7301 78.6116L41.2891 79.0389ZM170.453 62.9989L210.708 58L118.996 185.031L-1.00001 84.2905L41.2891 79.0389C41.2983 82.6231 42.5888 81.5238 44.7301 78.6116L77.1513 74.5854C80.0438 78.6528 81.789 81.0683 81.789 76.5C81.789 75.7377 81.6542 74.9195 81.4001 74.0578L88.9484 73.1204C84.8316 74.9724 82.289 76.9511 82.289 77.5C82.289 77.8732 83.4644 77.4806 85.5107 76.797C89.5214 75.4573 96.878 73 105.289 73C113.7 73 121.057 75.4573 125.067 76.797C127.114 77.4806 128.289 77.8732 128.289 77.5C128.289 76.6126 121.642 71.9872 112.441 70.203L132.538 67.7073C130.219 70.9421 128.789 74.018 128.789 76.5C128.789 81.1075 130.564 78.6107 133.502 74.4801C135.176 72.1257 137.228 69.2404 139.543 66.8374L154.837 64.9382C158.32 67.865 161.501 72.4238 163.987 75.9858C167.23 80.6331 169.289 83.5838 169.289 79C169.289 76.6719 169.563 73.6913 169.858 70.4765C170.08 68.0572 170.314 65.5053 170.453 62.9989ZM154.837 64.9382L170.453 62.9989C170.94 54.2197 170.258 46 163.789 46C155.636 46 139.767 57.6255 132.538 67.7073L139.543 66.8374C142.173 64.1075 145.144 62 148.289 62C150.524 62 152.735 63.1719 154.837 64.9382ZM112.441 70.203C110.19 69.7665 107.786 69.5 105.289 69.5C98.8984 69.5 93.1166 71.2453 88.9484 73.1204L112.441 70.203ZM80.789 112C83.8266 112 86.289 109.538 86.289 106.5C86.289 103.462 83.8266 101 80.789 101C77.7515 101 75.289 103.462 75.289 106.5C75.289 109.538 77.7515 112 80.789 112ZM128.289 106.5C128.289 109.538 125.603 112 122.289 112C118.975 112 116.289 109.538 116.289 106.5C116.289 103.462 118.975 101 122.289 101C125.603 101 128.289 103.462 128.289 106.5ZM101.789 130C104.827 130 107.289 127.538 107.289 124.5C107.289 121.462 104.827 119 101.789 119C98.7515 119 96.289 121.462 96.289 124.5C96.289 127.538 98.7515 130 101.789 130ZM117.166 141.857C122.059 138.378 130.588 132.315 135.776 123.387C141.082 114.257 141.57 104.41 141.834 99.0795C141.97 96.3253 142.047 94.7765 142.698 95.1546C144.608 96.2646 145.337 111.652 137.289 125.5C129.242 139.348 115.465 146.411 113.555 145.301C112.876 144.907 114.469 143.775 117.166 141.857ZM69.3507 123.387C74.539 132.315 83.0672 138.378 87.9606 141.857C90.6573 143.775 92.2501 144.907 91.5714 145.301C89.6614 146.411 75.8851 139.348 67.8375 125.5C59.7899 111.652 60.5187 96.2646 62.4287 95.1546C63.0793 94.7765 63.1561 96.3253 63.2925 99.0795V99.0795C63.5567 104.41 64.0445 114.257 69.3507 123.387Z" fill="#C9C9C9"/>
</g>
<defs>
<clipPath id="clip0_0_1">
<rect width="211" height="217" fill="white"/>
</clipPath>
</defs>
</svg>
